<svg xmlns="http://www.w3.org/2000/svg" xmlns:xlink="http://www.w3.org/1999/xlink" width="250" zoomAndPan="magnify" viewBox="0 0 187.5 112.499997" height="150" preserveAspectRatio="xMidYMid meet" version="1.0"><defs><g/><clipPath id="909275aa02"><path d="M 38.96875 23.433594 L 148.277344 23.433594 L 148.277344 111 L 38.96875 111 Z M 38.96875 23.433594 " clip-rule="nonzero"/></clipPath></defs><path fill="#000000" d="M 76.25 55.476562 L 73.640625 57.171875 L 68.808594 51.695312 Z M 76.25 55.476562 " fill-opacity="1" fill-rule="nonzero"/><path fill="#000000" d="M 88.4375 57.171875 L 85.828125 55.476562 L 93.269531 51.695312 Z M 88.4375 57.171875 " fill-opacity="1" fill-rule="nonzero"/><g clip-path="url(#909275aa02)"><path fill="#000000" d="M 64.101562 45.027344 C 67.558594 50.007812 73.839844 53.351562 81.039062 53.351562 C 88.238281 53.351562 94.523438 50.007812 97.980469 45.027344 C 97.167969 53.726562 89.898438 60.535156 81.039062 60.535156 C 72.183594 60.535156 64.910156 53.726562 64.101562 45.027344 Z M 81.648438 70.691406 L 93.269531 89.78125 L 95.503906 91.015625 L 93.527344 91.808594 L 92.710938 91.371094 Z M 95.847656 70.128906 L 95.386719 67.816406 L 100.816406 62.738281 Z M 100.816406 93.953125 L 104.648438 96.824219 L 102.488281 99.695312 Z M 38.972656 110.949219 L 55.265625 110.949219 L 59.035156 106.175781 L 60.371094 98.835938 L 66.53125 93.328125 L 61.816406 85.09375 L 66.546875 91.734375 L 84.445312 89.414062 L 77.636719 80.605469 L 87.6875 91.371094 L 87.847656 94.054688 L 80.492188 96.753906 L 80.492188 99.628906 L 88.078125 97.917969 L 88.253906 100.835938 L 96.441406 100.179688 L 98.761719 95.507812 L 102.003906 100.03125 L 99.519531 101.773438 L 105.355469 110.949219 L 118.363281 110.949219 L 113.257812 103.242188 L 123.371094 98.304688 L 121.066406 89.390625 L 118.5 88.285156 L 100.703125 93.5625 L 143.777344 79.011719 L 148.273438 69.957031 L 112.1875 85.128906 L 98.101562 79.136719 L 98.425781 83.050781 L 97.132812 76.574219 L 110.585938 66.652344 L 113.015625 57.722656 L 101.09375 49.964844 C 98.640625 56.664062 92.730469 61.675781 85.527344 62.773438 C 94.285156 60.726562 100.816406 52.839844 100.816406 43.40625 C 100.816406 32.414062 91.960938 23.503906 81.039062 23.503906 C 70.117188 23.503906 61.261719 32.414062 61.261719 43.40625 C 61.261719 44.304688 61.34375 45.183594 61.457031 46.054688 L 57.332031 50.992188 L 44.6875 58.210938 L 51.132812 61.636719 L 58.304688 53.332031 L 60.25 50.257812 L 59.132812 54.433594 L 49.429688 66.433594 L 55.871094 66.433594 L 61.261719 54.433594 L 62.394531 49.988281 C 63.066406 51.925781 64.03125 53.722656 65.230469 55.335938 L 61.261719 62.617188 L 61.261719 66.898438 L 72.042969 76.117188 L 49.792969 71.058594 L 40.796875 84.886719 L 43.957031 94.1875 L 53.804688 98.101562 L 49.0625 97 L 49.1875 101.160156 L 42.742188 106.054688 L 38.972656 110.949219 " fill-opacity="1" fill-rule="nonzero"/></g><g fill="#000000" fill-opacity="1"><g transform="translate(44.062991, 55.866681)"><g><path d="M 4.507812 -13.167969 C 5.589844 -16.5625 3.578125 -17.527344 0.433594 -18.527344 L -5.316406 -20.355469 C -7.671875 -21.101562 -10.375 -21.6875 -11.441406 -18.339844 C -12.714844 -14.332031 -9.496094 -13.085938 -7.820312 -12.554688 L -6.734375 -12.207031 C -6.578125 -12.15625 -6.492188 -12.03125 -6.558594 -11.828125 C -6.621094 -11.625 -6.761719 -11.570312 -6.921875 -11.621094 L -8.007812 -11.964844 C -9.683594 -12.496094 -13.03125 -13.335938 -14.304688 -9.332031 C -15.367188 -5.980469 -12.820312 -4.898438 -10.46875 -4.148438 L -4.71875 -2.324219 C -1.574219 -1.324219 0.625 -0.949219 1.703125 -4.34375 C 2.417969 -6.582031 1.492188 -8.222656 -0.613281 -8.890625 L -1.292969 -9.105469 C -1.808594 -8.425781 -2.742188 -8.148438 -3.738281 -8.390625 L -3.558594 -8.957031 C -2.425781 -8.671875 -1.746094 -9.25 -1.433594 -10.222656 C -1.140625 -11.152344 -1.363281 -12.019531 -2.449219 -12.441406 L -2.269531 -13.007812 C -1.316406 -12.628906 -0.714844 -11.863281 -0.6875 -11.007812 L -0.0078125 -10.792969 C 2.097656 -10.125 3.796875 -10.929688 4.507812 -13.167969 Z M 4.507812 -13.167969 "/></g></g></g><g fill="#000000" fill-opacity="1"><g transform="translate(48.64176, 40.337457)"><g><path d="M -6.449219 -17.53125 L -6.777344 -17.15625 C -11.523438 -11.808594 -8.660156 -8.382812 -5.214844 -5.324219 C -5.265625 -5.371094 -4.46875 -4.695312 -2.199219 -2.710938 C -1.148438 -1.78125 0.71875 -0.347656 3.035156 -2.957031 C 5.320312 -5.53125 3.671875 -7.21875 2.625 -8.148438 L 2.234375 -8.496094 C 1.46875 -8.0625 0.488281 -8.171875 -0.339844 -8.8125 L 0.0507812 -9.253906 C 0.96875 -8.535156 1.828125 -8.789062 2.367188 -9.394531 C 2.886719 -9.980469 3.035156 -10.863281 2.210938 -11.6875 L 2.605469 -12.132812 C 3.339844 -11.386719 3.566406 -10.425781 3.226562 -9.613281 L 3.617188 -9.265625 C 4.667969 -8.335938 6.535156 -6.902344 8.820312 -9.476562 C 11.136719 -12.089844 9.488281 -13.773438 8.441406 -14.703125 C 6.199219 -16.722656 5.433594 -17.433594 5.488281 -17.386719 C 2.042969 -20.441406 -1.703125 -22.878906 -6.449219 -17.53125 Z M -0.449219 -11.984375 C -0.90625 -11.46875 -1.292969 -11.75 -1.488281 -11.921875 L -2.746094 -13.042969 C -2.941406 -13.214844 -3.230469 -13.535156 -2.855469 -14.027344 C -2.398438 -14.542969 -2.011719 -14.261719 -1.816406 -14.089844 L -0.558594 -12.96875 C -0.359375 -12.796875 -0.0742188 -12.476562 -0.449219 -11.984375 Z M -0.449219 -11.984375 "/></g></g></g><g fill="#000000" fill-opacity="1"><g transform="translate(58.279819, 28.774474)"><g><path d="M 4.410156 -13.476562 L 4.398438 -13.496094 L 0.972656 -16.21875 C 0.148438 -16.804688 -1.199219 -17.613281 -2.621094 -16.949219 C -4.253906 -16.179688 -5.75 -13.722656 -4.933594 -11.980469 C -4.5625 -11.183594 -3.84375 -10.605469 -3.300781 -10.230469 L -0.621094 -8.652344 L -0.640625 -8.644531 L -1.121094 -5.585938 C -1.183594 -4.925781 -1.195312 -4.003906 -0.820312 -3.207031 C 0.00390625 -1.445312 2.851562 -1.023438 4.507812 -1.796875 C 5.949219 -2.472656 6.101562 -3.988281 6.152344 -5.007812 L 6.246094 -6.757812 L 4.445312 -8.195312 L 4.820312 -8.683594 L 8.234375 -5.984375 C 9.0625 -5.402344 10.421875 -4.570312 11.839844 -5.234375 C 12.378906 -5.488281 12.941406 -5.960938 13.492188 -6.746094 C 14.5625 -8.214844 14.546875 -9.363281 14.144531 -10.222656 C 13.769531 -11.019531 13.054688 -11.601562 12.511719 -11.976562 L 9.828125 -13.550781 L 9.851562 -13.5625 L 10.332031 -16.621094 C 10.390625 -17.277344 10.40625 -18.199219 10.03125 -18.996094 C 9.195312 -20.78125 6.367188 -21.160156 4.710938 -20.382812 C 3.273438 -19.710938 3.105469 -18.214844 3.058594 -17.195312 L 2.960938 -15.445312 L 4.761719 -14.007812 Z M 4.410156 -13.476562 "/></g></g></g><g fill="#000000" fill-opacity="1"><g transform="translate(72.892994, 22.610929)"><g/></g></g><g fill="#000000" fill-opacity="1"><g transform="translate(76.353909, 21.460369)"><g><path d="M 0.207031 -1.585938 C 0.152344 0.457031 1.550781 0.613281 2.382812 0.632812 L 9.980469 0.835938 C 10.785156 0.859375 12.214844 0.777344 12.269531 -1.261719 C 12.324219 -3.28125 10.902344 -3.460938 10.09375 -3.484375 L 2.5 -3.6875 C 1.667969 -3.707031 0.261719 -3.605469 0.207031 -1.585938 Z M 0.207031 -1.585938 "/></g></g></g><g fill="#000000" fill-opacity="1"><g transform="translate(87.754021, 22.044686)"><g/></g></g><g fill="#a04b55" fill-opacity="1"><g transform="translate(91.355135, 22.255659)"><g><path d="M 2.207031 -2.785156 C 1.601562 -1.523438 0.734375 0.667969 3.835938 2.160156 C 6.984375 3.671875 8.152344 1.625 8.757812 0.363281 L 9.550781 -1.285156 L 9.144531 -1.480469 L 9.429688 -2.082031 L 11.980469 -0.855469 C 12.726562 -0.496094 13.867188 -0.398438 14.628906 -1.925781 C 15.335938 -3.457031 14.546875 -4.285156 13.800781 -4.644531 L 10.203125 -6.371094 L 10.503906 -6.992188 L 14.738281 -4.957031 C 15.667969 -4.589844 16.96875 -4.4375 17.902344 -6.386719 C 18.828125 -8.3125 17.890625 -9.210938 17.023438 -9.707031 L 10.046875 -13.0625 C 7.863281 -14.113281 6.726562 -12.183594 6.40625 -11.519531 Z M 2.207031 -2.785156 "/></g></g></g><g fill="#a04b55" fill-opacity="1"><g transform="translate(102.284351, 26.773494)"><g><path d="M 18.679688 5.210938 C 21.953125 2.101562 21.449219 -1.320312 18.097656 -4.851562 C 14.871094 -8.242188 11.59375 -10.136719 7.652344 -6.390625 L 2.953125 -1.925781 C 1.9375 -0.957031 0.351562 0.78125 2.722656 3.277344 C 5.128906 5.808594 6.945312 4.308594 7.960938 3.34375 L 8.648438 2.6875 C 8.542969 2.230469 8.507812 1.710938 8.671875 1.226562 L 9.121094 1.355469 C 8.769531 2.539062 10.238281 4.359375 11.007812 5.167969 C 13.101562 7.371094 15.859375 7.894531 18.679688 5.210938 Z M 13.640625 -0.0234375 C 13.449219 0.15625 13.109375 0.414062 12.632812 -0.015625 C 12.125 -0.550781 12.4375 -0.910156 12.625 -1.089844 L 13.125 -1.566406 C 13.3125 -1.746094 13.65625 -2.007812 14.148438 -1.558594 C 14.640625 -1.039062 14.328125 -0.679688 14.140625 -0.5 Z M 13.640625 -0.0234375 "/></g></g></g><g fill="#a04b55" fill-opacity="1"><g transform="translate(112.891826, 37.464004)"><g><path d="M 12.433594 3.195312 C 12.320312 2.910156 12.210938 2.621094 12.085938 2.363281 L 12.503906 2.125 C 12.71875 2.550781 12.910156 2.988281 13.074219 3.40625 C 13.816406 5.335938 14.085938 7.421875 13.902344 9.453125 C 14.589844 10.507812 15.6875 10.773438 17.664062 9.832031 C 19.6875 8.875 20.082031 6.332031 17.976562 0.878906 C 15.722656 -4.96875 12.050781 -4.191406 10.699219 -3.667969 C 9.105469 -3.054688 7.945312 -1.84375 7.566406 -0.246094 L 7.574219 -0.222656 C 7.132812 1.730469 7.671875 3.988281 8.425781 5.9375 C 8.5625 6.292969 8.699219 6.648438 8.855469 6.992188 L 8.320312 7.253906 C 8.113281 6.847656 7.929688 6.4375 7.765625 6.015625 C 7.023438 4.085938 6.761719 2.023438 6.960938 -0.0390625 C 6.273438 -1.09375 5.289062 -1.402344 3.308594 -0.460938 C 1.285156 0.496094 0.871094 3.050781 2.972656 8.5 C 5.230469 14.347656 8.921875 13.5625 10.273438 13.039062 C 14.503906 11.40625 13.765625 6.652344 12.433594 3.195312 Z M 12.433594 3.195312 "/></g></g></g></svg>